<svg xmlns="http://www.w3.org/2000/svg" xmlns:xlink="http://www.w3.org/1999/xlink" width="2000" zoomAndPan="magnify" viewBox="0 0 1500 1499.999933" height="2000" preserveAspectRatio="xMidYMid meet" version="1.0"><defs><clipPath id="8a3bc22576"><path d="M 329.839844 1170.15625 L 1157.628906 1170.15625 L 1157.628906 1349.996094 L 329.839844 1349.996094 Z M 329.839844 1170.15625 " clip-rule="nonzero"/></clipPath><clipPath id="cbce806083"><path d="M 379.539062 0 L 559.378906 0 L 559.378906 940.617188 L 379.539062 940.617188 Z M 379.539062 0 " clip-rule="nonzero"/></clipPath><clipPath id="992eef0f98"><path d="M 559.378906 940.613281 L 1157.625 940.613281 L 1157.625 1120.453125 L 559.378906 1120.453125 Z M 559.378906 940.613281 " clip-rule="nonzero"/></clipPath><clipPath id="6a88557b81"><path d="M 149.996094 0.00390625 L 329.832031 0.00390625 L 329.832031 1170.164062 L 149.996094 1170.164062 Z M 149.996094 0.00390625 " clip-rule="nonzero"/></clipPath><clipPath id="fa343f5793"><path d="M 379.542969 940.453125 L 559.542969 940.453125 L 559.542969 1120.453125 L 379.542969 1120.453125 Z M 379.542969 940.453125 " clip-rule="nonzero"/></clipPath><clipPath id="a12de79f86"><path d="M 150 1170 L 330 1170 L 330 1349.996094 L 150 1349.996094 Z M 150 1170 " clip-rule="nonzero"/></clipPath></defs><g clip-path="url(#8a3bc22576)"><path fill="#fafafa" d="M 1157.628906 1349.996094 L 329.839844 1349.996094 L 329.839844 1170.15625 L 1157.628906 1170.15625 Z M 1157.628906 1349.996094 " fill-opacity="1" fill-rule="nonzero"/></g><g clip-path="url(#cbce806083)"><path fill="#fafafa" d="M 559.378906 0 L 559.378906 940.617188 L 379.539062 940.617188 L 379.539062 0 Z M 559.378906 0 " fill-opacity="1" fill-rule="nonzero"/></g><g clip-path="url(#992eef0f98)"><path fill="#fafafa" d="M 1157.625 1120.453125 L 559.378906 1120.453125 L 559.378906 940.613281 L 1157.625 940.613281 Z M 1157.625 1120.453125 " fill-opacity="1" fill-rule="nonzero"/></g><g clip-path="url(#6a88557b81)"><path fill="#fafafa" d="M 329.832031 0.00390625 L 329.832031 1170.164062 L 149.996094 1170.164062 L 149.996094 0.00390625 Z M 329.832031 0.00390625 " fill-opacity="1" fill-rule="nonzero"/></g><g clip-path="url(#fa343f5793)"><path fill="#fafafa" d="M 379.542969 940.617188 L 559.378906 940.617188 L 559.378906 1120.453125 Z M 379.542969 940.617188 " fill-opacity="1" fill-rule="nonzero"/></g><g clip-path="url(#a12de79f86)"><path fill="#fafafa" d="M 150 1170.160156 L 329.835938 1170.160156 L 329.835938 1349.996094 Z M 150 1170.160156 " fill-opacity="1" fill-rule="nonzero"/></g></svg>